<?xml version="1.0" encoding="UTF-8" standalone="no"?>
<!DOCTYPE svg PUBLIC "-//W3C//DTD SVG 1.1//EN"
 "http://www.w3.org/Graphics/SVG/1.1/DTD/svg11.dtd">
<!-- Generated by graphviz version 13.1.2 (20250808.2320)
 -->
<!-- Title: dep Pages: 1 -->
<svg width="964pt" height="260pt"
 viewBox="0.00 0.00 964.00 260.00" xmlns="http://www.w3.org/2000/svg" xmlns:xlink="http://www.w3.org/1999/xlink">
<g id="graph0" class="graph" transform="scale(1 1) rotate(0) translate(4 256)">
<title>dep</title>
<polygon fill="white" stroke="none" points="-4,4 -4,-256 960.14,-256 960.14,4 -4,4"/>
<!-- argparse -->
<g id="node1" class="node">
<title>argparse</title>
<ellipse fill="none" stroke="black" cx="42.14" cy="-234" rx="42.14" ry="18"/>
<text xml:space="preserve" text-anchor="middle" x="42.14" y="-228.95" font-family="Times,serif" font-size="14.00">argparse</text>
</g>
<!-- scnlib -->
<g id="node2" class="node">
<title>scnlib</title>
<ellipse fill="none" stroke="black" cx="135.14" cy="-234" rx="32.93" ry="18"/>
<text xml:space="preserve" text-anchor="middle" x="135.14" y="-228.95" font-family="Times,serif" font-size="14.00">scnlib</text>
</g>
<!-- type_safe -->
<g id="node3" class="node">
<title>type_safe</title>
<ellipse fill="none" stroke="black" cx="232.14" cy="-234" rx="46.23" ry="18"/>
<text xml:space="preserve" text-anchor="middle" x="232.14" y="-228.95" font-family="Times,serif" font-size="14.00">type_safe</text>
</g>
<!-- zstring_view -->
<g id="node4" class="node">
<title>zstring_view</title>
<ellipse fill="none" stroke="black" cx="355.14" cy="-234" rx="58.52" ry="18"/>
<text xml:space="preserve" text-anchor="middle" x="355.14" y="-228.95" font-family="Times,serif" font-size="14.00">zstring_view</text>
</g>
<!-- cpptrace -->
<g id="node5" class="node">
<title>cpptrace</title>
<ellipse fill="none" stroke="black" cx="474.14" cy="-234" rx="42.14" ry="18"/>
<text xml:space="preserve" text-anchor="middle" x="474.14" y="-228.95" font-family="Times,serif" font-size="14.00">cpptrace</text>
</g>
<!-- libassert -->
<g id="node7" class="node">
<title>libassert</title>
<ellipse fill="none" stroke="black" cx="530.14" cy="-162" rx="41.63" ry="18"/>
<text xml:space="preserve" text-anchor="middle" x="530.14" y="-156.95" font-family="Times,serif" font-size="14.00">libassert</text>
</g>
<!-- cpptrace&#45;&gt;libassert -->
<g id="edge1" class="edge">
<title>cpptrace&#45;&gt;libassert</title>
<path fill="none" stroke="black" d="M487.13,-216.76C493.98,-208.19 502.54,-197.49 510.22,-187.9"/>
<polygon fill="black" stroke="black" points="512.76,-190.32 516.28,-180.33 507.3,-185.95 512.76,-190.32"/>
</g>
<!-- enchantum -->
<g id="node6" class="node">
<title>enchantum</title>
<ellipse fill="none" stroke="black" cx="586.14" cy="-234" rx="51.86" ry="18"/>
<text xml:space="preserve" text-anchor="middle" x="586.14" y="-228.95" font-family="Times,serif" font-size="14.00">enchantum</text>
</g>
<!-- enchantum&#45;&gt;libassert -->
<g id="edge2" class="edge">
<title>enchantum&#45;&gt;libassert</title>
<path fill="none" stroke="black" d="M572.87,-216.41C566.17,-208.04 557.91,-197.71 550.43,-188.37"/>
<polygon fill="black" stroke="black" points="553.24,-186.27 544.26,-180.65 547.77,-190.65 553.24,-186.27"/>
</g>
<!-- abseil -->
<g id="node8" class="node">
<title>abseil</title>
<ellipse fill="none" stroke="black" cx="688.14" cy="-234" rx="32.41" ry="18"/>
<text xml:space="preserve" text-anchor="middle" x="688.14" y="-228.95" font-family="Times,serif" font-size="14.00">abseil</text>
</g>
<!-- protobuf -->
<g id="node9" class="node">
<title>protobuf</title>
<ellipse fill="none" stroke="black" cx="737.14" cy="-162" rx="42.65" ry="18"/>
<text xml:space="preserve" text-anchor="middle" x="737.14" y="-156.95" font-family="Times,serif" font-size="14.00">protobuf</text>
</g>
<!-- abseil&#45;&gt;protobuf -->
<g id="edge3" class="edge">
<title>abseil&#45;&gt;protobuf</title>
<path fill="none" stroke="black" d="M699.5,-216.76C705.29,-208.49 712.48,-198.23 719.01,-188.9"/>
<polygon fill="black" stroke="black" points="721.76,-191.07 724.63,-180.87 716.03,-187.06 721.76,-191.07"/>
</g>
<!-- gtirb -->
<g id="node14" class="node">
<title>gtirb</title>
<ellipse fill="none" stroke="black" cx="792.14" cy="-90" rx="28.32" ry="18"/>
<text xml:space="preserve" text-anchor="middle" x="792.14" y="-84.95" font-family="Times,serif" font-size="14.00">gtirb</text>
</g>
<!-- protobuf&#45;&gt;gtirb -->
<g id="edge7" class="edge">
<title>protobuf&#45;&gt;gtirb</title>
<path fill="none" stroke="black" d="M750.17,-144.41C756.94,-135.8 765.34,-125.11 772.84,-115.56"/>
<polygon fill="black" stroke="black" points="775.59,-117.73 779.02,-107.7 770.09,-113.4 775.59,-117.73"/>
</g>
<!-- fmt -->
<g id="node10" class="node">
<title>fmt</title>
<ellipse fill="none" stroke="black" cx="929.14" cy="-162" rx="27" ry="18"/>
<text xml:space="preserve" text-anchor="middle" x="929.14" y="-156.95" font-family="Times,serif" font-size="14.00">fmt</text>
</g>
<!-- LIEF -->
<g id="node11" class="node">
<title>LIEF</title>
<ellipse fill="none" stroke="black" cx="921.14" cy="-90" rx="30.37" ry="18"/>
<text xml:space="preserve" text-anchor="middle" x="921.14" y="-84.95" font-family="Times,serif" font-size="14.00">LIEF</text>
</g>
<!-- fmt&#45;&gt;LIEF -->
<g id="edge4" class="edge">
<title>fmt&#45;&gt;LIEF</title>
<path fill="none" stroke="black" d="M927.16,-143.7C926.33,-136.41 925.34,-127.73 924.4,-119.54"/>
<polygon fill="black" stroke="black" points="927.88,-119.15 923.27,-109.61 920.92,-119.94 927.88,-119.15"/>
</g>
<!-- ddisasm -->
<g id="node15" class="node">
<title>ddisasm</title>
<ellipse fill="none" stroke="black" cx="848.14" cy="-18" rx="41.63" ry="18"/>
<text xml:space="preserve" text-anchor="middle" x="848.14" y="-12.95" font-family="Times,serif" font-size="14.00">ddisasm</text>
</g>
<!-- LIEF&#45;&gt;ddisasm -->
<g id="edge10" class="edge">
<title>LIEF&#45;&gt;ddisasm</title>
<path fill="none" stroke="black" d="M905.66,-74.15C896.15,-65.03 883.75,-53.14 872.9,-42.74"/>
<polygon fill="black" stroke="black" points="875.35,-40.24 865.7,-35.84 870.5,-45.29 875.35,-40.24"/>
</g>
<!-- capstone -->
<g id="node12" class="node">
<title>capstone</title>
<ellipse fill="none" stroke="black" cx="841.14" cy="-162" rx="43.16" ry="18"/>
<text xml:space="preserve" text-anchor="middle" x="841.14" y="-156.95" font-family="Times,serif" font-size="14.00">capstone</text>
</g>
<!-- capstone&#45;&gt;gtirb -->
<g id="edge5" class="edge">
<title>capstone&#45;&gt;gtirb</title>
<path fill="none" stroke="black" d="M829.53,-144.41C823.65,-136.01 816.38,-125.63 809.82,-116.26"/>
<polygon fill="black" stroke="black" points="812.8,-114.41 804.2,-108.23 807.07,-118.43 812.8,-114.41"/>
</g>
<!-- capstone&#45;&gt;ddisasm -->
<g id="edge8" class="edge">
<title>capstone&#45;&gt;ddisasm</title>
<path fill="none" stroke="black" d="M842,-143.59C843.18,-119.61 845.32,-76.14 846.74,-47.42"/>
<polygon fill="black" stroke="black" points="850.22,-47.78 847.22,-37.62 843.23,-47.44 850.22,-47.78"/>
</g>
<!-- googletest -->
<g id="node13" class="node">
<title>googletest</title>
<ellipse fill="none" stroke="black" cx="787.14" cy="-234" rx="48.79" ry="18"/>
<text xml:space="preserve" text-anchor="middle" x="787.14" y="-228.95" font-family="Times,serif" font-size="14.00">googletest</text>
</g>
<!-- googletest&#45;&gt;protobuf -->
<g id="edge6" class="edge">
<title>googletest&#45;&gt;protobuf</title>
<path fill="none" stroke="black" d="M775.29,-216.41C769.37,-208.13 762.09,-197.92 755.47,-188.66"/>
<polygon fill="black" stroke="black" points="758.44,-186.8 749.78,-180.7 752.75,-190.87 758.44,-186.8"/>
</g>
<!-- gtirb&#45;&gt;ddisasm -->
<g id="edge9" class="edge">
<title>gtirb&#45;&gt;ddisasm</title>
<path fill="none" stroke="black" d="M804.57,-73.46C811.4,-64.92 820.06,-54.1 827.85,-44.36"/>
<polygon fill="black" stroke="black" points="830.51,-46.64 834.02,-36.65 825.04,-42.27 830.51,-46.64"/>
</g>
</g>
</svg>
