<?xml version="1.0" encoding="UTF-8" standalone="no"?>
<!DOCTYPE svg PUBLIC "-//W3C//DTD SVG 1.1//EN"
 "http://www.w3.org/Graphics/SVG/1.1/DTD/svg11.dtd">
<!-- Generated by graphviz version 13.1.2 (20250808.2320)
 -->
<!-- Title: dep Pages: 1 -->
<svg width="1004pt" height="260pt"
 viewBox="0.00 0.00 1004.00 260.00" xmlns="http://www.w3.org/2000/svg" xmlns:xlink="http://www.w3.org/1999/xlink">
<g id="graph0" class="graph" transform="scale(1 1) rotate(0) translate(4 256)">
<title>dep</title>
<polygon fill="white" stroke="none" points="-4,4 -4,-256 1000.3,-256 1000.3,4 -4,4"/>
<!-- argparse -->
<g id="node1" class="node">
<title>argparse</title>
<ellipse fill="none" stroke="black" cx="42.14" cy="-234" rx="42.14" ry="18"/>
<text xml:space="preserve" text-anchor="middle" x="42.14" y="-228.95" font-family="Times,serif" font-size="14.00">argparse</text>
</g>
<!-- scnlib -->
<g id="node2" class="node">
<title>scnlib</title>
<ellipse fill="none" stroke="black" cx="135.14" cy="-234" rx="32.93" ry="18"/>
<text xml:space="preserve" text-anchor="middle" x="135.14" y="-228.95" font-family="Times,serif" font-size="14.00">scnlib</text>
</g>
<!-- type_safe -->
<g id="node3" class="node">
<title>type_safe</title>
<ellipse fill="none" stroke="black" cx="232.14" cy="-234" rx="46.23" ry="18"/>
<text xml:space="preserve" text-anchor="middle" x="232.14" y="-228.95" font-family="Times,serif" font-size="14.00">type_safe</text>
</g>
<!-- zstring_view -->
<g id="node4" class="node">
<title>zstring_view</title>
<ellipse fill="none" stroke="black" cx="355.14" cy="-234" rx="58.52" ry="18"/>
<text xml:space="preserve" text-anchor="middle" x="355.14" y="-228.95" font-family="Times,serif" font-size="14.00">zstring_view</text>
</g>
<!-- cpptrace -->
<g id="node5" class="node">
<title>cpptrace</title>
<ellipse fill="none" stroke="black" cx="474.14" cy="-234" rx="42.14" ry="18"/>
<text xml:space="preserve" text-anchor="middle" x="474.14" y="-228.95" font-family="Times,serif" font-size="14.00">cpptrace</text>
</g>
<!-- libassert -->
<g id="node7" class="node">
<title>libassert</title>
<ellipse fill="none" stroke="black" cx="540.14" cy="-162" rx="41.63" ry="18"/>
<text xml:space="preserve" text-anchor="middle" x="540.14" y="-156.95" font-family="Times,serif" font-size="14.00">libassert</text>
</g>
<!-- cpptrace&#45;&gt;libassert -->
<g id="edge1" class="edge">
<title>cpptrace&#45;&gt;libassert</title>
<path fill="none" stroke="black" d="M489.45,-216.76C497.69,-208.02 508.03,-197.05 517.22,-187.31"/>
<polygon fill="black" stroke="black" points="519.56,-189.93 523.88,-180.25 514.47,-185.12 519.56,-189.93"/>
</g>
<!-- enchantum -->
<g id="node6" class="node">
<title>enchantum</title>
<ellipse fill="none" stroke="black" cx="586.14" cy="-234" rx="51.86" ry="18"/>
<text xml:space="preserve" text-anchor="middle" x="586.14" y="-228.95" font-family="Times,serif" font-size="14.00">enchantum</text>
</g>
<!-- enchantum&#45;&gt;libassert -->
<g id="edge2" class="edge">
<title>enchantum&#45;&gt;libassert</title>
<path fill="none" stroke="black" d="M575,-216.05C569.75,-208.06 563.36,-198.33 557.49,-189.4"/>
<polygon fill="black" stroke="black" points="560.42,-187.49 552,-181.05 554.57,-191.33 560.42,-187.49"/>
</g>
<!-- abseil -->
<g id="node8" class="node">
<title>abseil</title>
<ellipse fill="none" stroke="black" cx="734.14" cy="-234" rx="32.41" ry="18"/>
<text xml:space="preserve" text-anchor="middle" x="734.14" y="-228.95" font-family="Times,serif" font-size="14.00">abseil</text>
</g>
<!-- protobuf -->
<g id="node9" class="node">
<title>protobuf</title>
<ellipse fill="none" stroke="black" cx="734.14" cy="-162" rx="42.65" ry="18"/>
<text xml:space="preserve" text-anchor="middle" x="734.14" y="-156.95" font-family="Times,serif" font-size="14.00">protobuf</text>
</g>
<!-- abseil&#45;&gt;protobuf -->
<g id="edge3" class="edge">
<title>abseil&#45;&gt;protobuf</title>
<path fill="none" stroke="black" d="M734.14,-215.7C734.14,-208.41 734.14,-199.73 734.14,-191.54"/>
<polygon fill="black" stroke="black" points="737.64,-191.62 734.14,-181.62 730.64,-191.62 737.64,-191.62"/>
</g>
<!-- gtirb -->
<g id="node14" class="node">
<title>gtirb</title>
<ellipse fill="none" stroke="black" cx="843.14" cy="-90" rx="28.32" ry="18"/>
<text xml:space="preserve" text-anchor="middle" x="843.14" y="-84.95" font-family="Times,serif" font-size="14.00">gtirb</text>
</g>
<!-- protobuf&#45;&gt;gtirb -->
<g id="edge7" class="edge">
<title>protobuf&#45;&gt;gtirb</title>
<path fill="none" stroke="black" d="M756.99,-146.33C773.56,-135.69 796.1,-121.21 813.96,-109.74"/>
<polygon fill="black" stroke="black" points="815.81,-112.71 822.33,-104.36 812.02,-106.82 815.81,-112.71"/>
</g>
<!-- fmt -->
<g id="node10" class="node">
<title>fmt</title>
<ellipse fill="none" stroke="black" cx="646.14" cy="-162" rx="27" ry="18"/>
<text xml:space="preserve" text-anchor="middle" x="646.14" y="-156.95" font-family="Times,serif" font-size="14.00">fmt</text>
</g>
<!-- LIEF -->
<g id="node11" class="node">
<title>LIEF</title>
<ellipse fill="none" stroke="black" cx="706.14" cy="-90" rx="30.37" ry="18"/>
<text xml:space="preserve" text-anchor="middle" x="706.14" y="-84.95" font-family="Times,serif" font-size="14.00">LIEF</text>
</g>
<!-- fmt&#45;&gt;LIEF -->
<g id="edge4" class="edge">
<title>fmt&#45;&gt;LIEF</title>
<path fill="none" stroke="black" d="M659.16,-145.81C666.84,-136.85 676.72,-125.32 685.45,-115.14"/>
<polygon fill="black" stroke="black" points="687.89,-117.66 691.74,-107.79 682.58,-113.11 687.89,-117.66"/>
</g>
<!-- ddisasm -->
<g id="node15" class="node">
<title>ddisasm</title>
<ellipse fill="none" stroke="black" cx="843.14" cy="-18" rx="41.63" ry="18"/>
<text xml:space="preserve" text-anchor="middle" x="843.14" y="-12.95" font-family="Times,serif" font-size="14.00">ddisasm</text>
</g>
<!-- LIEF&#45;&gt;ddisasm -->
<g id="edge10" class="edge">
<title>LIEF&#45;&gt;ddisasm</title>
<path fill="none" stroke="black" d="M728.76,-77.44C750.04,-66.57 782.25,-50.11 807.08,-37.43"/>
<polygon fill="black" stroke="black" points="808.55,-40.6 815.86,-32.94 805.36,-34.37 808.55,-40.6"/>
</g>
<!-- capstone -->
<g id="node12" class="node">
<title>capstone</title>
<ellipse fill="none" stroke="black" cx="953.14" cy="-162" rx="43.16" ry="18"/>
<text xml:space="preserve" text-anchor="middle" x="953.14" y="-156.95" font-family="Times,serif" font-size="14.00">capstone</text>
</g>
<!-- capstone&#45;&gt;gtirb -->
<g id="edge5" class="edge">
<title>capstone&#45;&gt;gtirb</title>
<path fill="none" stroke="black" d="M930.08,-146.33C913.18,-135.57 890.11,-120.89 871.99,-109.36"/>
<polygon fill="black" stroke="black" points="874.09,-106.55 863.77,-104.13 870.33,-112.45 874.09,-106.55"/>
</g>
<!-- capstone&#45;&gt;ddisasm -->
<g id="edge8" class="edge">
<title>capstone&#45;&gt;ddisasm</title>
<path fill="none" stroke="black" d="M940.31,-144.43C921.26,-119.85 885.36,-73.51 862.94,-44.56"/>
<polygon fill="black" stroke="black" points="865.71,-42.42 856.82,-36.66 860.17,-46.71 865.71,-42.42"/>
</g>
<!-- googletest -->
<g id="node13" class="node">
<title>googletest</title>
<ellipse fill="none" stroke="black" cx="843.14" cy="-162" rx="48.79" ry="18"/>
<text xml:space="preserve" text-anchor="middle" x="843.14" y="-156.95" font-family="Times,serif" font-size="14.00">googletest</text>
</g>
<!-- googletest&#45;&gt;gtirb -->
<g id="edge6" class="edge">
<title>googletest&#45;&gt;gtirb</title>
<path fill="none" stroke="black" d="M843.14,-143.7C843.14,-136.41 843.14,-127.73 843.14,-119.54"/>
<polygon fill="black" stroke="black" points="846.64,-119.62 843.14,-109.62 839.64,-119.62 846.64,-119.62"/>
</g>
<!-- gtirb&#45;&gt;ddisasm -->
<g id="edge9" class="edge">
<title>gtirb&#45;&gt;ddisasm</title>
<path fill="none" stroke="black" d="M843.14,-71.7C843.14,-64.41 843.14,-55.73 843.14,-47.54"/>
<polygon fill="black" stroke="black" points="846.64,-47.62 843.14,-37.62 839.64,-47.62 846.64,-47.62"/>
</g>
</g>
</svg>
